<svg xmlns="http://www.w3.org/2000/svg" width="860" height="496" viewBox="0 0 860 496" role="img" aria-label="Compact-10 Artifact vs Clean macro mean, v1.0.1">
<rect width="100%" height="100%" fill="#ffffff"/>
<text x="24" y="28" font-family="ui-sans-serif, system-ui, sans-serif" font-size="16" font-weight="600" fill="#111827">Compact-10 · Artifact vs Clean (v1.0.1)</text>
<text x="24" y="48" font-family="ui-sans-serif, system-ui, sans-serif" font-size="12" fill="#6b7280">Five-skill macro mean on 62 items. Micro denominator is 186. 27B / 35B-A3B are upper-reference and are not in this rank.</text>
<line x1="168.0" y1="58.0" x2="168.0" y2="424.0" stroke="#e5e7eb" stroke-width="1"/>
<text x="168.0" y="440.0" text-anchor="middle" font-family="ui-sans-serif, system-ui, sans-serif" font-size="11" fill="#6b7280">0.00</text>
<line x1="323.0" y1="58.0" x2="323.0" y2="424.0" stroke="#e5e7eb" stroke-width="1"/>
<text x="323.0" y="440.0" text-anchor="middle" font-family="ui-sans-serif, system-ui, sans-serif" font-size="11" fill="#6b7280">0.25</text>
<line x1="478.0" y1="58.0" x2="478.0" y2="424.0" stroke="#e5e7eb" stroke-width="1"/>
<text x="478.0" y="440.0" text-anchor="middle" font-family="ui-sans-serif, system-ui, sans-serif" font-size="11" fill="#6b7280">0.50</text>
<line x1="633.0" y1="58.0" x2="633.0" y2="424.0" stroke="#e5e7eb" stroke-width="1"/>
<text x="633.0" y="440.0" text-anchor="middle" font-family="ui-sans-serif, system-ui, sans-serif" font-size="11" fill="#6b7280">0.75</text>
<line x1="788.0" y1="58.0" x2="788.0" y2="424.0" stroke="#e5e7eb" stroke-width="1"/>
<text x="788.0" y="440.0" text-anchor="middle" font-family="ui-sans-serif, system-ui, sans-serif" font-size="11" fill="#6b7280">1.00</text>
<text x="156.0" y="82.0" text-anchor="end" font-family="ui-sans-serif, system-ui, sans-serif" font-size="12" fill="#111827">Qwen3.5-9B</text>
<rect x="168.0" y="70.0" width="487.2" height="11" fill="#1f4e79" rx="1"/>
<rect x="168.0" y="84.0" width="469.4" height="11" fill="#9db4c8" rx="1"/>
<text x="661.2" y="80.0" font-family="ui-sans-serif, system-ui, sans-serif" font-size="10" fill="#1f4e79">0.786</text>
<text x="156.0" y="118.0" text-anchor="end" font-family="ui-sans-serif, system-ui, sans-serif" font-size="12" fill="#111827">Ministral-14B</text>
<rect x="168.0" y="106.0" width="308.1" height="11" fill="#1f4e79" rx="1"/>
<rect x="168.0" y="120.0" width="302.6" height="11" fill="#9db4c8" rx="1"/>
<text x="482.1" y="116.0" font-family="ui-sans-serif, system-ui, sans-serif" font-size="10" fill="#1f4e79">0.497</text>
<text x="156.0" y="154.0" text-anchor="end" font-family="ui-sans-serif, system-ui, sans-serif" font-size="12" fill="#111827">Ministral-8B</text>
<rect x="168.0" y="142.0" width="282.6" height="11" fill="#1f4e79" rx="1"/>
<rect x="168.0" y="156.0" width="254.9" height="11" fill="#9db4c8" rx="1"/>
<text x="456.6" y="152.0" font-family="ui-sans-serif, system-ui, sans-serif" font-size="10" fill="#1f4e79">0.456</text>
<text x="156.0" y="190.0" text-anchor="end" font-family="ui-sans-serif, system-ui, sans-serif" font-size="12" fill="#111827">Qwen3-14B</text>
<rect x="168.0" y="178.0" width="250.7" height="11" fill="#1f4e79" rx="1"/>
<rect x="168.0" y="192.0" width="206.2" height="11" fill="#9db4c8" rx="1"/>
<text x="424.7" y="188.0" font-family="ui-sans-serif, system-ui, sans-serif" font-size="10" fill="#1f4e79">0.404</text>
<text x="156.0" y="226.0" text-anchor="end" font-family="ui-sans-serif, system-ui, sans-serif" font-size="12" fill="#111827">Gemma-3-12B</text>
<rect x="168.0" y="214.0" width="193.9" height="11" fill="#1f4e79" rx="1"/>
<rect x="168.0" y="228.0" width="70.6" height="11" fill="#9db4c8" rx="1"/>
<text x="367.9" y="224.0" font-family="ui-sans-serif, system-ui, sans-serif" font-size="10" fill="#1f4e79">0.313</text>
<text x="156.0" y="262.0" text-anchor="end" font-family="ui-sans-serif, system-ui, sans-serif" font-size="12" fill="#111827">Granite-4.1-8B</text>
<rect x="168.0" y="250.0" width="100.4" height="11" fill="#1f4e79" rx="1"/>
<rect x="168.0" y="264.0" width="86.6" height="11" fill="#9db4c8" rx="1"/>
<text x="274.4" y="260.0" font-family="ui-sans-serif, system-ui, sans-serif" font-size="10" fill="#1f4e79">0.162</text>
<text x="156.0" y="298.0" text-anchor="end" font-family="ui-sans-serif, system-ui, sans-serif" font-size="12" fill="#111827">Gemma-3-4B</text>
<rect x="168.0" y="286.0" width="41.3" height="11" fill="#1f4e79" rx="1"/>
<rect x="168.0" y="300.0" width="41.3" height="11" fill="#9db4c8" rx="1"/>
<text x="215.3" y="296.0" font-family="ui-sans-serif, system-ui, sans-serif" font-size="10" fill="#1f4e79">0.067</text>
<text x="156.0" y="334.0" text-anchor="end" font-family="ui-sans-serif, system-ui, sans-serif" font-size="12" fill="#111827">Ministral-3B</text>
<rect x="168.0" y="322.0" width="30.3" height="11" fill="#1f4e79" rx="1"/>
<rect x="168.0" y="336.0" width="11.9" height="11" fill="#9db4c8" rx="1"/>
<text x="204.3" y="332.0" font-family="ui-sans-serif, system-ui, sans-serif" font-size="10" fill="#1f4e79">0.049</text>
<text x="156.0" y="370.0" text-anchor="end" font-family="ui-sans-serif, system-ui, sans-serif" font-size="12" fill="#111827">Qwen3-8B</text>
<rect x="168.0" y="358.0" width="20.8" height="11" fill="#1f4e79" rx="1"/>
<rect x="168.0" y="372.0" width="11.3" height="11" fill="#9db4c8" rx="1"/>
<text x="194.8" y="368.0" font-family="ui-sans-serif, system-ui, sans-serif" font-size="10" fill="#1f4e79">0.034</text>
<text x="156.0" y="406.0" text-anchor="end" font-family="ui-sans-serif, system-ui, sans-serif" font-size="12" fill="#111827">Llama-3.2-3B</text>
<rect x="168.0" y="394.0" width="16.5" height="11" fill="#1f4e79" rx="1"/>
<rect x="168.0" y="408.0" width="0.0" height="11" fill="#9db4c8" rx="1"/>
<text x="190.5" y="404.0" font-family="ui-sans-serif, system-ui, sans-serif" font-size="10" fill="#1f4e79">0.027</text>
<rect x="24" y="458" width="14" height="10" fill="#1f4e79"/>
<text x="44" y="468" font-family="ui-sans-serif, system-ui, sans-serif" font-size="12" fill="#111827">Artifact</text>
<rect x="120" y="458" width="14" height="10" fill="#9db4c8"/>
<text x="140" y="468" font-family="ui-sans-serif, system-ui, sans-serif" font-size="12" fill="#111827">Clean</text>
<text x="210" y="468" font-family="ui-sans-serif, system-ui, sans-serif" font-size="11" fill="#6b7280">Source: results/canonical-coverage.json · halt (Artifact=1, not clean) = 105</text>
</svg>
